<svg xmlns="http://www.w3.org/2000/svg" width="2048" height="2048" viewBox="0 0 2048 2048">
  <path fill="#624885" fill-rule="evenodd" d="M 983 150 L 972 152 L 955 152 L 950 154 L 938 154 L 934 156 L 924 156 L 921 158 L 911 158 L 908 160 L 891 162 L 889 164 L 882 164 L 880 166 L 866 168 L 864 170 L 859 170 L 857 172 L 852 172 L 850 174 L 846 174 L 843 176 L 839 176 L 837 178 L 833 178 L 831 180 L 827 180 L 825 182 L 821 182 L 814 186 L 810 186 L 808 188 L 790 194 L 775 202 L 772 202 L 771 204 L 768 204 L 732 224 L 726 226 L 725 228 L 684 254 L 656 276 L 612 318 L 588 346 L 570 370 L 570 372 L 566 376 L 552 398 L 528 443 L 526 450 L 520 461 L 520 464 L 518 466 L 518 469 L 516 471 L 516 474 L 514 476 L 512 485 L 510 487 L 510 491 L 508 493 L 506 503 L 504 505 L 504 509 L 500 519 L 500 524 L 498 526 L 498 532 L 496 534 L 496 540 L 494 543 L 492 559 L 490 562 L 490 570 L 488 574 L 488 583 L 486 587 L 486 599 L 484 604 L 484 623 L 482 631 L 482 685 L 488 745 L 490 748 L 492 767 L 494 769 L 494 775 L 496 778 L 496 784 L 498 786 L 500 799 L 502 802 L 502 806 L 504 808 L 508 825 L 510 827 L 510 831 L 512 833 L 512 836 L 514 838 L 522 861 L 546 909 L 548 910 L 552 919 L 566 941 L 568 942 L 570 947 L 598 983 L 646 1033 L 661 1045 L 666 1051 L 675 1057 L 698 1079 L 706 1090 L 710 1099 L 710 1104 L 712 1108 L 712 1412 L 714 1415 L 714 1420 L 722 1434 L 742 1456 L 798 1526 L 802 1533 L 806 1536 L 818 1553 L 874 1622 L 878 1629 L 882 1632 L 916 1677 L 920 1680 L 924 1687 L 942 1708 L 952 1723 L 964 1736 L 984 1763 L 999 1779 L 1005 1783 L 1017 1784 L 1023 1783 L 1029 1779 L 1047 1759 L 1059 1742 L 1077 1721 L 1081 1714 L 1085 1711 L 1105 1684 L 1115 1673 L 1119 1666 L 1123 1663 L 1127 1656 L 1231 1527 L 1235 1520 L 1291 1450 L 1309 1431 L 1313 1423 L 1315 1416 L 1315 1113 L 1317 1109 L 1317 1104 L 1321 1097 L 1321 1094 L 1335 1077 L 1389 1031 L 1431 987 L 1465 943 L 1493 896 L 1505 871 L 1511 853 L 1515 847 L 1517 838 L 1519 836 L 1519 832 L 1523 824 L 1523 820 L 1525 818 L 1525 814 L 1531 797 L 1531 792 L 1533 790 L 1533 785 L 1535 782 L 1537 765 L 1539 762 L 1539 755 L 1541 751 L 1541 743 L 1543 739 L 1543 727 L 1545 723 L 1545 707 L 1547 702 L 1548 655 L 1545 599 L 1543 595 L 1543 584 L 1541 581 L 1541 571 L 1539 568 L 1539 561 L 1537 559 L 1535 542 L 1533 539 L 1533 534 L 1531 531 L 1525 506 L 1521 498 L 1521 494 L 1519 492 L 1515 478 L 1505 457 L 1505 454 L 1485 414 L 1459 372 L 1427 331 L 1389 292 L 1353 262 L 1337 250 L 1332 248 L 1316 236 L 1314 236 L 1313 234 L 1311 234 L 1282 216 L 1276 214 L 1275 212 L 1272 212 L 1271 210 L 1263 206 L 1260 206 L 1255 202 L 1252 202 L 1242 196 L 1239 196 L 1233 192 L 1230 192 L 1213 184 L 1209 184 L 1207 182 L 1183 174 L 1178 174 L 1176 172 L 1164 170 L 1162 168 L 1156 168 L 1154 166 L 1139 164 L 1137 162 L 1130 162 L 1127 160 L 1106 158 L 1103 156 L 1092 156 L 1088 154 L 1076 154 L 1071 152 L 1053 152 L 1045 150 Z M 814 1450 L 847 1449 L 851 1447 L 866 1445 L 868 1443 L 872 1443 L 898 1431 L 914 1419 L 923 1423 L 931 1429 L 943 1433 L 944 1435 L 953 1437 L 955 1439 L 992 1447 L 1035 1447 L 1039 1445 L 1049 1445 L 1052 1443 L 1057 1443 L 1082 1435 L 1093 1429 L 1096 1429 L 1112 1419 L 1126 1429 L 1155 1443 L 1167 1445 L 1170 1447 L 1178 1447 L 1181 1449 L 1211 1449 L 1212 1451 L 1110 1580 L 1104 1580 L 1101 1578 L 1086 1576 L 1083 1574 L 1074 1574 L 1071 1572 L 1029 1569 L 971 1570 L 966 1572 L 953 1572 L 949 1574 L 942 1574 L 939 1576 L 933 1576 L 921 1580 L 916 1580 L 895 1552 L 869 1521 L 853 1498 Z M 1012 741 L 1042 757 L 1056 761 L 1058 763 L 1062 763 L 1064 765 L 1069 765 L 1071 767 L 1077 767 L 1081 769 L 1083 795 L 1082 1383 L 1070 1390 L 1056 1394 L 1054 1396 L 1025 1402 L 1001 1402 L 977 1398 L 975 1396 L 964 1394 L 958 1390 L 955 1390 L 945 1384 L 942 1384 L 939 1381 L 939 770 L 947 767 L 960 765 L 968 761 L 972 761 L 974 759 L 987 755 L 1007 745 Z M 1258 691 L 1258 702 L 1256 704 L 1254 711 L 1239 724 L 1224 730 L 1210 732 L 1207 734 L 1189 736 L 1146 734 L 1134 731 L 1135 726 L 1145 711 L 1156 699 L 1174 685 L 1200 673 L 1206 673 L 1208 671 L 1236 671 L 1247 675 L 1254 682 Z M 767 689 L 771 681 L 777 675 L 787 671 L 816 671 L 819 673 L 830 675 L 836 679 L 843 681 L 863 695 L 882 716 L 888 726 L 888 730 L 886 732 L 875 732 L 870 734 L 832 736 L 826 734 L 806 732 L 803 730 L 793 728 L 791 726 L 784 724 L 773 715 L 767 704 Z M 1002 561 L 1020 561 L 1031 567 L 1040 578 L 1042 588 L 1044 591 L 1044 619 L 1038 641 L 1024 669 L 1013 682 L 1011 682 L 1006 677 L 995 661 L 983 635 L 981 620 L 979 617 L 979 589 L 983 577 L 991 567 Z M 872 229 L 876 229 L 886 225 L 891 225 L 894 223 L 900 223 L 903 221 L 909 221 L 912 219 L 919 219 L 922 217 L 930 217 L 934 215 L 943 215 L 947 213 L 958 213 L 962 211 L 979 211 L 985 209 L 1045 209 L 1053 211 L 1085 213 L 1088 215 L 1108 217 L 1111 219 L 1118 219 L 1120 221 L 1135 223 L 1137 225 L 1143 225 L 1146 227 L 1150 227 L 1152 229 L 1156 229 L 1192 241 L 1194 243 L 1197 243 L 1208 249 L 1220 253 L 1226 257 L 1229 257 L 1230 259 L 1248 267 L 1279 287 L 1281 287 L 1282 289 L 1311 309 L 1331 325 L 1359 351 L 1382 376 L 1404 404 L 1434 452 L 1454 494 L 1454 497 L 1458 504 L 1460 513 L 1462 515 L 1462 519 L 1464 521 L 1468 533 L 1468 537 L 1472 547 L 1472 552 L 1474 554 L 1476 569 L 1478 572 L 1478 579 L 1480 582 L 1482 606 L 1484 610 L 1484 628 L 1486 635 L 1486 689 L 1484 697 L 1484 715 L 1482 719 L 1480 743 L 1478 746 L 1478 752 L 1476 756 L 1476 762 L 1474 765 L 1474 771 L 1472 773 L 1472 779 L 1458 823 L 1456 825 L 1456 828 L 1446 852 L 1430 883 L 1418 903 L 1414 907 L 1414 909 L 1412 910 L 1392 939 L 1372 963 L 1339 996 L 1286 1042 L 1272 1061 L 1264 1078 L 1262 1088 L 1260 1091 L 1260 1100 L 1258 1104 L 1258 1381 L 1244 1392 L 1231 1398 L 1227 1398 L 1225 1400 L 1218 1400 L 1214 1402 L 1190 1402 L 1185 1400 L 1178 1400 L 1175 1398 L 1170 1398 L 1162 1394 L 1159 1394 L 1140 1384 L 1137 1381 L 1137 779 L 1139 777 L 1143 779 L 1155 779 L 1160 781 L 1209 781 L 1214 779 L 1224 779 L 1227 777 L 1233 777 L 1236 775 L 1252 771 L 1271 761 L 1279 755 L 1291 743 L 1297 732 L 1299 731 L 1305 713 L 1306 702 L 1305 679 L 1303 677 L 1301 667 L 1295 656 L 1287 646 L 1270 634 L 1247 626 L 1237 626 L 1232 624 L 1213 624 L 1208 626 L 1198 626 L 1195 628 L 1189 628 L 1187 630 L 1182 630 L 1180 632 L 1176 632 L 1174 634 L 1157 640 L 1132 656 L 1120 666 L 1100 690 L 1090 708 L 1088 719 L 1085 723 L 1071 720 L 1069 718 L 1065 718 L 1054 712 L 1051 712 L 1048 708 L 1055 701 L 1067 684 L 1077 665 L 1083 646 L 1085 644 L 1085 639 L 1087 636 L 1087 630 L 1089 626 L 1089 616 L 1091 612 L 1091 589 L 1089 585 L 1089 577 L 1087 574 L 1087 568 L 1085 566 L 1081 554 L 1073 542 L 1060 530 L 1042 520 L 1029 518 L 1026 516 L 1011 515 L 986 518 L 964 528 L 946 546 L 938 560 L 936 570 L 934 572 L 934 580 L 932 583 L 932 615 L 938 645 L 940 647 L 940 651 L 952 677 L 954 678 L 954 680 L 964 695 L 977 709 L 975 712 L 941 724 L 937 719 L 937 714 L 935 712 L 933 704 L 925 690 L 919 682 L 901 664 L 870 642 L 848 632 L 844 632 L 834 628 L 816 626 L 811 624 L 786 624 L 783 626 L 775 626 L 757 632 L 746 638 L 728 656 L 720 673 L 720 679 L 718 682 L 718 709 L 726 733 L 728 734 L 728 736 L 736 747 L 746 756 L 756 763 L 772 771 L 781 773 L 783 775 L 788 775 L 791 777 L 797 777 L 800 779 L 809 779 L 813 781 L 862 781 L 867 779 L 877 779 L 881 777 L 884 778 L 885 1381 L 877 1388 L 861 1396 L 851 1398 L 849 1400 L 841 1400 L 836 1402 L 818 1402 L 814 1400 L 805 1400 L 803 1398 L 798 1398 L 796 1396 L 792 1396 L 784 1392 L 783 1390 L 778 1388 L 771 1380 L 771 1109 L 769 1101 L 769 1092 L 767 1089 L 765 1077 L 755 1056 L 741 1038 L 686 988 L 665 967 L 639 937 L 621 913 L 601 881 L 583 846 L 583 843 L 579 837 L 579 834 L 571 817 L 569 808 L 567 806 L 567 802 L 565 800 L 565 796 L 563 794 L 561 783 L 559 781 L 557 767 L 555 764 L 555 758 L 553 756 L 551 737 L 549 734 L 547 707 L 545 702 L 544 641 L 547 599 L 549 596 L 549 586 L 551 582 L 551 574 L 553 571 L 555 555 L 557 552 L 557 547 L 559 544 L 559 539 L 561 537 L 561 532 L 563 530 L 565 519 L 569 511 L 569 507 L 571 505 L 571 502 L 573 500 L 573 497 L 575 495 L 575 492 L 583 473 L 601 438 L 603 437 L 611 422 L 613 421 L 613 419 L 629 396 L 661 358 L 698 323 L 723 303 L 725 303 L 740 291 L 742 291 L 766 275 L 804 255 L 807 255 L 813 251 L 830 245 L 832 243 L 835 243 L 837 241 L 840 241 L 842 239 L 846 239 L 848 237 L 852 237 L 854 235 L 870 231 Z"/>
</svg>
